<?xml version="1.0" standalone="no"?>
<!DOCTYPE svg PUBLIC "-//W3C//DTD SVG 20010904//EN"
 "http://www.w3.org/TR/2001/REC-SVG-20010904/DTD/svg10.dtd">
<svg version="1.0" xmlns="http://www.w3.org/2000/svg"
 width="700.000000pt" height="700.000000pt" viewBox="0 0 700.000000 700.000000"
 preserveAspectRatio="xMidYMid meet">
<metadata>
Created by potrace 1.11, written by Peter Selinger 2001-2013
</metadata>
<g transform="translate(0.000000,700.000000) scale(0.100000,-0.100000)"
fill="#000000" stroke="none">
<path d="M2670 6989 c-117 -18 -140 -23 -215 -46 -239 -75 -456 -225 -603
-418 -25 -33 -49 -64 -53 -69 -4 -5 -52 -10 -106 -11 -107 -3 -155 -9 -250
-31 -81 -19 -225 -69 -271 -96 -20 -12 -50 -28 -67 -36 -42 -21 -153 -100
-199 -142 -226 -206 -350 -431 -407 -740 -13 -71 -20 -1764 -8 -1872 9 -80 56
-174 117 -235 85 -85 175 -121 297 -119 44 1 94 5 110 10 l31 8 0 -1254 c1
-689 3 -1280 4 -1312 14 -237 175 -463 403 -566 130 -58 46 -55 1652 -55
l1480 0 83 28 c119 40 196 89 283 178 60 60 86 97 122 170 63 129 74 194 74
472 1 126 4 231 7 234 3 4 180 7 393 9 214 1 395 4 403 6 8 3 35 10 60 17 247
69 430 262 487 511 15 69 17 180 17 1310 0 988 -3 1249 -13 1305 -13 68 -67
207 -83 213 -4 2 -8 8 -8 14 0 9 -37 60 -85 116 -34 40 -137 113 -200 142
-136 63 -134 63 -570 66 -344 3 -400 5 -405 18 -3 8 -5 100 -4 204 l1 190 69
69 c81 82 126 154 167 266 27 75 30 93 30 212 0 104 -5 144 -21 199 -44 143
-152 288 -277 371 -65 43 -183 91 -250 102 -88 14 -225 9 -299 -11 l-69 -19
-24 29 c-13 16 -36 44 -51 62 -66 81 -208 167 -331 201 -117 33 -295 25 -404
-18 -24 -9 -31 -7 -65 23 -161 143 -399 255 -617 291 -58 10 -282 13 -335 4z
m3021 -3022 c4 -40 3 -2047 -1 -2049 -3 0 -125 -2 -272 -3 l-268 -1 -1 38 c0
21 -1 479 -1 1018 0 539 1 986 1 994 1 13 43 15 271 15 204 0 270 -3 271 -12z"/>
</g>
</svg>
